<?xml version="1.0" encoding="UTF-8"?>
<svg version="1.1" xmlns="http://www.w3.org/2000/svg" width="32" height="32">
<path d="M0 0 C6.27 0 12.54 0 19 0 C18.67 2.64 18.34 5.28 18 8 C18.804375 8.2475 19.60875 8.495 20.4375 8.75 C23 10 23 10 24 11.9375 C24 14 24 14 22.75 15.75 C21 17 21 17 18 17 C18 17.66 18 18.32 18 19 C17.360625 18.814375 16.72125 18.62875 16.0625 18.4375 C15.0415625 18.2209375 15.0415625 18.2209375 14 18 C13.67 18.33 13.34 18.66 13 19 C7.58823529 19.47058824 7.58823529 19.47058824 5.125 17.5 C4.75375 17.005 4.3825 16.51 4 16 C3.67 16.99 3.34 17.98 3 19 C1.68 19 0.36 19 -1 19 C-1 16.69 -1 14.38 -1 12 C-1.99 12 -2.98 12 -4 12 C-3.67 10.68 -3.34 9.36 -3 8 C-1.35 8 0.3 8 2 8 C1.34 5.36 0.68 2.72 0 0 Z M4 8 C4.66 8.66 5.32 9.32 6 10 C6.66 9.34 7.32 8.68 8 8 C6.68 8 5.36 8 4 8 Z M11 8 C12.32 8.99 13.64 9.98 15 11 C15.33 10.01 15.66 9.02 16 8 C14.35 8 12.7 8 11 8 Z M9 12 C8.67 12.99 8.34 13.98 8 15 C8.99 15 9.98 15 11 15 C11 14.01 11 13.02 11 12 C10.34 12 9.68 12 9 12 Z " fill="#D80C0D" transform="translate(6,7)"/>
</svg>
